<svg xmlns="http://www.w3.org/2000/svg" width="16" height="16" class="bi bi-phone" viewBox="0 0 16 16">
  <style>
    .adaptive-color {
      fill: currentColor;
    }

    @media (prefers-color-scheme: dark) {
      .adaptive-color {
        fill: #fff;
      }
    }

    [data-color-mode=dark][data-dark-theme*=dark] .adaptive-color {
      fill: #fff;
    }
  </style>

  <path class="adaptive-color" d="M11 1a1 1 0 0 1 1 1v12a1 1 0 0 1-1 1H5a1 1 0 0 1-1-1V2a1 1 0 0 1 1-1zM5 0a2 2 0 0 0-2 2v12a2 2 0 0 0 2 2h6a2 2 0 0 0 2-2V2a2 2 0 0 0-2-2z"/>
  <path class="adaptive-color" d="M8 14a1 1 0 1 0 0-2 1 1 0 0 0 0 2"/>
</svg>