<svg xmlns="http://www.w3.org/2000/svg" width="260pt" height="260pt" version="1" viewBox="0 0 260.000000 260.000000">
<path d="M0 130v130h260V0H0v130zm197.5-67.3c1.4 3.6 1.7 22.3.6 33.4-2.5 24.2-7.8 43.6-16.4 60.4-6.8 13.1-18.6 25.5-29 30.4-7.4 3.5-17.7 6.1-24.9 6.1-4.8 0-19-2.4-20.9-3.6-.6-.3 1.6-2.3 5-4.3 23.1-14 42.1-36.5 53.1-63.2 2.7-6.5 7.6-21.9 6.6-20.8-.2.2-4.4 5.8-9.3 12.4-30.2 40.5-63.7 66.3-97.3 75l-6.5 1.7-2.2-2.7c-2.5-2.9-3-7.7-1-9.4.8-.6 5.2-2.2 9.8-3.5 4.6-1.4 12-4 16.4-5.9l8-3.4-.5-6.4c-2.1-26.4 2.5-43.5 14.6-54.9 7.4-7 16.7-11 36.7-15.9 9.2-2.3 20.6-5.6 25.4-7.3 9.2-3.3 20.6-10.4 26.2-16.2 4-4.1 4.6-4.3 5.6-1.9z" fill="#63b175"/>
</svg>
